<mxfile host="app.diagrams.net" modified="2024-05-13T00:39:09.707Z" agent="Mozilla/5.0 (Macintosh; Intel Mac OS X 10_15_7) AppleWebKit/605.1.15 (KHTML, like Gecko) Version/17.2 Safari/605.1.15" version="24.4.0" etag="hqZLW8LS3ato1BZ7-EZp" type="github">
  <diagram name="Page-1" id="s3gj2j05MKCySde8LhgR">
    <mxGraphModel>
      <root>
        <mxCell id="0" />
        <mxCell id="1" parent="0" />
      </root>
    </mxGraphModel>
  </diagram>
</mxfile>
